<mxfile host="app.diagrams.net" agent="Mozilla/5.0 (Macintosh; Intel Mac OS X 10_15_7) AppleWebKit/537.36 (KHTML, like Gecko) Chrome/140.0.0.0 Safari/537.36" version="28.2.1">
  <diagram name="日志" id="5PuWHgra3XS1AYxMK9cx">
    <mxGraphModel dx="1797" dy="896" grid="1" gridSize="10" guides="1" tooltips="1" connect="1" arrows="1" fold="1" page="1" pageScale="1" pageWidth="827" pageHeight="1169" math="0" shadow="0">
      <root>
        <mxCell id="0" />
        <mxCell id="1" parent="0" />
        <mxCell id="S9nwp4nAc-PwIzCNcufq-1" value="sentinel(哨兵值)" style="rounded=0;whiteSpace=wrap;html=1;fillColor=#f8cecc;strokeColor=#b85450;" vertex="1" parent="1">
          <mxGeometry x="120" y="120" width="160" height="40" as="geometry" />
        </mxCell>
        <mxCell id="S9nwp4nAc-PwIzCNcufq-2" value="" style="shape=curlyBracket;whiteSpace=wrap;html=1;rounded=1;labelPosition=left;verticalLabelPosition=middle;align=right;verticalAlign=middle;rotation=-90;" vertex="1" parent="1">
          <mxGeometry x="190" y="100" width="20" height="160" as="geometry" />
        </mxCell>
        <mxCell id="S9nwp4nAc-PwIzCNcufq-3" value="8bytes" style="text;html=1;align=center;verticalAlign=middle;resizable=0;points=[];autosize=1;strokeColor=none;fillColor=none;" vertex="1" parent="1">
          <mxGeometry x="170" y="198" width="60" height="30" as="geometry" />
        </mxCell>
        <mxCell id="S9nwp4nAc-PwIzCNcufq-4" value="entry_size" style="rounded=0;whiteSpace=wrap;html=1;fillColor=#dae8fc;strokeColor=#6c8ebf;" vertex="1" parent="1">
          <mxGeometry x="280" y="120" width="80" height="40" as="geometry" />
        </mxCell>
        <mxCell id="S9nwp4nAc-PwIzCNcufq-5" value="" style="shape=curlyBracket;whiteSpace=wrap;html=1;rounded=1;labelPosition=left;verticalLabelPosition=middle;align=right;verticalAlign=middle;rotation=-90;" vertex="1" parent="1">
          <mxGeometry x="310" y="140" width="20" height="80" as="geometry" />
        </mxCell>
        <mxCell id="S9nwp4nAc-PwIzCNcufq-6" value="4bytes" style="text;html=1;align=center;verticalAlign=middle;resizable=0;points=[];autosize=1;strokeColor=none;fillColor=none;" vertex="1" parent="1">
          <mxGeometry x="290" y="198" width="60" height="30" as="geometry" />
        </mxCell>
        <mxCell id="S9nwp4nAc-PwIzCNcufq-7" value="data" style="rounded=0;whiteSpace=wrap;html=1;fillColor=#f5f5f5;strokeColor=#666666;fontColor=#333333;" vertex="1" parent="1">
          <mxGeometry x="360" y="120" width="160" height="40" as="geometry" />
        </mxCell>
        <mxCell id="S9nwp4nAc-PwIzCNcufq-9" value="write_pos" style="rounded=0;whiteSpace=wrap;html=1;fillColor=#d5e8d4;strokeColor=#82b366;" vertex="1" parent="1">
          <mxGeometry x="520" y="120" width="160" height="40" as="geometry" />
        </mxCell>
        <mxCell id="S9nwp4nAc-PwIzCNcufq-10" value="" style="shape=curlyBracket;whiteSpace=wrap;html=1;rounded=1;labelPosition=left;verticalLabelPosition=middle;align=right;verticalAlign=middle;rotation=-90;" vertex="1" parent="1">
          <mxGeometry x="430" y="100" width="20" height="160" as="geometry" />
        </mxCell>
        <mxCell id="S9nwp4nAc-PwIzCNcufq-11" value="&lt;span style=&quot;text-wrap-mode: wrap;&quot;&gt;entry_size&lt;/span&gt;" style="text;html=1;align=center;verticalAlign=middle;resizable=0;points=[];autosize=1;strokeColor=none;fillColor=none;" vertex="1" parent="1">
          <mxGeometry x="400" y="198" width="80" height="30" as="geometry" />
        </mxCell>
        <mxCell id="S9nwp4nAc-PwIzCNcufq-12" value="" style="shape=curlyBracket;whiteSpace=wrap;html=1;rounded=1;labelPosition=left;verticalLabelPosition=middle;align=right;verticalAlign=middle;rotation=-90;" vertex="1" parent="1">
          <mxGeometry x="590" y="100" width="20" height="160" as="geometry" />
        </mxCell>
        <mxCell id="S9nwp4nAc-PwIzCNcufq-13" value="8bytes" style="text;html=1;align=center;verticalAlign=middle;resizable=0;points=[];autosize=1;strokeColor=none;fillColor=none;" vertex="1" parent="1">
          <mxGeometry x="570" y="198" width="60" height="30" as="geometry" />
        </mxCell>
      </root>
    </mxGraphModel>
  </diagram>
</mxfile>
